{
  "accessors": [
    {
      "bufferView": 2,
      "componentType": 5126,
      "count": 3104,
      "max": [
        0.8929600119590759,
        0.1347813755273819,
        0.574999988079071
      ],
      "min": [
        -0.9200000166893005,
        -0.13595721125602722,
        -0.6331290006637573
      ],
      "type": "VEC3"
    },
    {
      "bufferView": 2,
      "byteOffset": 37248,
      "componentType": 5126,
      "count": 3104,
      "max": [
        0.9999997019767761,
        0.9997107982635498,
        0.9999921917915344
      ],
      "min": [
        -0.9996984004974365,
        -0.9997107982635498,
        -0.999996542930603
      ],
      "type": "VEC3"
    },
    {
      "bufferView": 1,
      "componentType": 5126,
      "count": 3104,
      "max": [
        0.9464799761772156,
        0.7875000238418579
      ],
      "min": [
        0.03999999910593033,
        0.18343549966812134
      ],
      "type": "VEC2"
    },
    {
      "bufferView": 0,
      "componentType": 5125,
      "count": 18492,
      "type": "SCALAR"
    }
  ],
  "asset": {
    "extras": {
      "author": "Little Ground-jay (https://sketchfab.com/zhenshu27)",
      "license": "CC-BY-4.0 (http://creativecommons.org/licenses/by/4.0/)",
      "source": "https://sketchfab.com/3d-models/numbat-37a3adcb2e314cbd9f8176ce190b3a1f",
      "title": "Numbat"
    },
    "generator": "Sketchfab-12.67.0",
    "version": "2.0"
  },
  "bufferViews": [
    {
      "buffer": 0,
      "byteLength": 73968,
      "name": "floatBufferViews",
      "target": 34963
    },
    {
      "buffer": 0,
      "byteLength": 24832,
      "byteOffset": 73968,
      "byteStride": 8,
      "name": "floatBufferViews",
      "target": 34962
    },
    {
      "buffer": 0,
      "byteLength": 74496,
      "byteOffset": 98800,
      "byteStride": 12,
      "name": "floatBufferViews",
      "target": 34962
    }
  ],
  "buffers": [
    {
      "byteLength": 173296,
      "uri": "scene.bin"
    }
  ],
  "images": [
    {
      "uri": "textures/Textured_baseColor.jpeg"
    }
  ],
  "materials": [
    {
      "doubleSided": true,
      "name": "Textured",
      "pbrMetallicRoughness": {
        "baseColorTexture": {
          "index": 0
        },
        "metallicFactor": 0.0,
        "roughnessFactor": 0.6
      }
    }
  ],
  "meshes": [
    {
      "name": "Object_0",
      "primitives": [
        {
          "attributes": {
            "NORMAL": 1,
            "POSITION": 0,
            "TEXCOORD_0": 2
          },
          "indices": 3,
          "material": 0,
          "mode": 4
        }
      ]
    }
  ],
  "nodes": [
    {
      "children": [
        1
      ],
      "matrix": [
        1.0,
        0.0,
        0.0,
        0.0,
        0.0,
        2.220446049250313e-16,
        -1.0,
        0.0,
        0.0,
        1.0,
        2.220446049250313e-16,
        0.0,
        0.0,
        0.0,
        0.0,
        1.0
      ],
      "name": "Sketchfab_model"
    },
    {
      "children": [
        2
      ],
      "name": "Numbat.obj.cleaner.materialmerger.gles"
    },
    {
      "mesh": 0,
      "name": "Object_2"
    }
  ],
  "samplers": [
    {
      "magFilter": 9729,
      "minFilter": 9987,
      "wrapS": 10497,
      "wrapT": 10497
    }
  ],
  "scene": 0,
  "scenes": [
    {
      "name": "Sketchfab_Scene",
      "nodes": [
        0
      ]
    }
  ],
  "textures": [
    {
      "sampler": 0,
      "source": 0
    }
  ]
}
