{
  "accessors": [
    {
      "bufferView": 2,
      "componentType": 5126,
      "count": 186,
      "max": [
        0.07500000298023224,
        0.0024999999441206455,
        0.0024999999441206455
      ],
      "min": [
        -0.07500000298023224,
        -0.0024999999441206455,
        -0.0024999999441206455
      ],
      "type": "VEC3"
    },
    {
      "bufferView": 2,
      "byteOffset": 2232,
      "componentType": 5126,
      "count": 186,
      "max": [
        1.0,
        1.0,
        0.9993915557861328
      ],
      "min": [
        -1.0,
        -0.9993915557861328,
        -0.9993915557861328
      ],
      "type": "VEC3"
    },
    {
      "bufferView": 1,
      "componentType": 5126,
      "count": 186,
      "max": [
        0.007849999703466892,
        0.07500000298023224
      ],
      "min": [
        -0.007849999703466892,
        -0.07500000298023224
      ],
      "type": "VEC2"
    },
    {
      "bufferView": 0,
      "componentType": 5125,
      "count": 540,
      "type": "SCALAR"
    },
    {
      "bufferView": 2,
      "byteOffset": 4464,
      "componentType": 5126,
      "count": 30227,
      "max": [
        0.0,
        0.03359000012278557,
        0.03319000080227852
      ],
      "min": [
        -0.04766999930143356,
        -0.03333999961614609,
        -0.03432000055909157
      ],
      "type": "VEC3"
    },
    {
      "bufferView": 2,
      "byteOffset": 367188,
      "componentType": 5126,
      "count": 30227,
      "max": [
        1.0,
        0.9999939799308777,
        0.9999988675117493
      ],
      "min": [
        -1.0,
        -0.9998074173927307,
        -0.9998674988746643
      ],
      "type": "VEC3"
    },
    {
      "bufferView": 1,
      "byteOffset": 1488,
      "componentType": 5126,
      "count": 30227,
      "max": [
        0.0957999974489212,
        0.11813999712467194
      ],
      "min": [
        -0.09217999875545502,
        -0.03240000084042549
      ],
      "type": "VEC2"
    },
    {
      "bufferView": 0,
      "byteOffset": 2160,
      "componentType": 5125,
      "count": 150942,
      "type": "SCALAR"
    },
    {
      "bufferView": 2,
      "byteOffset": 729912,
      "componentType": 5126,
      "count": 186,
      "max": [
        0.002580000087618828,
        0.05000000074505806,
        0.0024999999441206455
      ],
      "min": [
        -0.002420000033453107,
        -0.05000000074505806,
        -0.0024999999441206455
      ],
      "type": "VEC3"
    },
    {
      "bufferView": 2,
      "byteOffset": 732144,
      "componentType": 5126,
      "count": 186,
      "max": [
        1.0,
        1.0,
        0.9993915557861328
      ],
      "min": [
        -0.9993915557861328,
        -1.0,
        -0.9993915557861328
      ],
      "type": "VEC3"
    },
    {
      "bufferView": 1,
      "byteOffset": 243304,
      "componentType": 5126,
      "count": 186,
      "max": [
        0.007849999703466892,
        0.05000000074505806
      ],
      "min": [
        -0.007849999703466892,
        -0.05000000074505806
      ],
      "type": "VEC2"
    },
    {
      "bufferView": 0,
      "byteOffset": 605928,
      "componentType": 5125,
      "count": 540,
      "type": "SCALAR"
    },
    {
      "bufferView": 2,
      "byteOffset": 734376,
      "componentType": 5126,
      "count": 18798,
      "max": [
        0.1234700009226799,
        0.029500000178813934,
        0.12348999828100204
      ],
      "min": [
        -0.12342000007629395,
        0.0,
        -0.12349999696016312
      ],
      "type": "VEC3"
    },
    {
      "bufferView": 2,
      "byteOffset": 959952,
      "componentType": 5126,
      "count": 18798,
      "max": [
        0.999963104724884,
        1.0,
        0.9999786019325256
      ],
      "min": [
        -0.9999920725822449,
        -1.0,
        -0.9999999403953552
      ],
      "type": "VEC3"
    },
    {
      "bufferView": 1,
      "byteOffset": 244792,
      "componentType": 5126,
      "count": 18798,
      "max": [
        0.38798999786376953,
        0.119889996945858
      ],
      "min": [
        -0.38798999786376953,
        -0.15994000434875488
      ],
      "type": "VEC2"
    },
    {
      "bufferView": 0,
      "byteOffset": 608088,
      "componentType": 5125,
      "count": 77304,
      "type": "SCALAR"
    },
    {
      "bufferView": 3,
      "componentType": 5126,
      "count": 100,
      "max": [
        4.166669845581055
      ],
      "min": [
        0.041669998317956924
      ],
      "type": "SCALAR"
    },
    {
      "bufferView": 5,
      "componentType": 5126,
      "count": 100,
      "max": [
        0.0,
        0.0,
        0.9996600151062012,
        1.0
      ],
      "min": [
        0.0,
        0.0,
        -0.9996600151062012,
        0.026019999757409096
      ],
      "type": "VEC4"
    },
    {
      "bufferView": 3,
      "byteOffset": 400,
      "componentType": 5126,
      "count": 94,
      "max": [
        4.166669845581055
      ],
      "min": [
        0.041669998317956924
      ],
      "type": "SCALAR"
    },
    {
      "bufferView": 4,
      "componentType": 5126,
      "count": 94,
      "max": [
        0.0,
        0.004029999952763319,
        0.0
      ],
      "min": [
        -0.008019999600946903,
        -0.004029999952763319,
        0.0
      ],
      "type": "VEC3"
    },
    {
      "bufferView": 3,
      "byteOffset": 776,
      "componentType": 5126,
      "count": 100,
      "max": [
        4.166669845581055
      ],
      "min": [
        0.041669998317956924
      ],
      "type": "SCALAR"
    },
    {
      "bufferView": 5,
      "byteOffset": 1600,
      "componentType": 5126,
      "count": 100,
      "max": [
        0.7071099877357483,
        0.7068700194358826,
        0.7068700194358826,
        0.7071099877357483
      ],
      "min": [
        0.018400000408291817,
        -0.7068700194358826,
        -0.7068700194358826,
        0.018400000408291817
      ],
      "type": "VEC4"
    },
    {
      "bufferView": 3,
      "byteOffset": 1176,
      "componentType": 5126,
      "count": 94,
      "max": [
        4.166669845581055
      ],
      "min": [
        0.041669998317956924
      ],
      "type": "SCALAR"
    },
    {
      "bufferView": 4,
      "byteOffset": 1128,
      "componentType": 5126,
      "count": 94,
      "max": [
        0.0,
        0.004029999952763319,
        0.0
      ],
      "min": [
        -0.008019999600946903,
        -0.004029999952763319,
        0.0
      ],
      "type": "VEC3"
    },
    {
      "bufferView": 3,
      "byteOffset": 1552,
      "componentType": 5126,
      "count": 100,
      "max": [
        4.166669845581055
      ],
      "min": [
        0.041669998317956924
      ],
      "type": "SCALAR"
    },
    {
      "bufferView": 5,
      "byteOffset": 3200,
      "componentType": 5126,
      "count": 100,
      "max": [
        0.7071099877357483,
        0.7068700194358826,
        0.7068700194358826,
        0.7071099877357483
      ],
      "min": [
        0.018400000408291817,
        -0.7068700194358826,
        -0.7068700194358826,
        0.018400000408291817
      ],
      "type": "VEC4"
    },
    {
      "bufferView": 3,
      "byteOffset": 1952,
      "componentType": 5126,
      "count": 100,
      "max": [
        4.166669845581055
      ],
      "min": [
        0.041669998317956924
      ],
      "type": "SCALAR"
    },
    {
      "bufferView": 5,
      "byteOffset": 4800,
      "componentType": 5126,
      "count": 100,
      "max": [
        1.0,
        0.0,
        0.0,
        1.0
      ],
      "min": [
        -0.9915400147438049,
        0.0,
        0.0,
        -0.008220000192523003
      ],
      "type": "VEC4"
    },
    {
      "bufferView": 3,
      "byteOffset": 2352,
      "componentType": 5126,
      "count": 100,
      "max": [
        4.166669845581055
      ],
      "min": [
        0.041669998317956924
      ],
      "type": "SCALAR"
    },
    {
      "bufferView": 5,
      "byteOffset": 6400,
      "componentType": 5126,
      "count": 100,
      "max": [
        0.9993299841880798,
        0.0,
        0.0,
        0.9998700022697449
      ],
      "min": [
        -0.9998700022697449,
        0.0,
        0.0,
        0.016349999234080315
      ],
      "type": "VEC4"
    },
    {
      "bufferView": 3,
      "byteOffset": 2752,
      "componentType": 5126,
      "count": 100,
      "max": [
        4.166669845581055
      ],
      "min": [
        0.041669998317956924
      ],
      "type": "SCALAR"
    },
    {
      "bufferView": 5,
      "byteOffset": 8000,
      "componentType": 5126,
      "count": 100,
      "max": [
        0.9993299841880798,
        0.0,
        0.0,
        0.9998700022697449
      ],
      "min": [
        -0.9998700022697449,
        0.0,
        0.0,
        0.016349999234080315
      ],
      "type": "VEC4"
    }
  ],
  "animations": [
    {
      "channels": [
        {
          "sampler": 0,
          "target": {
            "node": 11,
            "path": "rotation"
          }
        },
        {
          "sampler": 1,
          "target": {
            "node": 9,
            "path": "translation"
          }
        },
        {
          "sampler": 2,
          "target": {
            "node": 9,
            "path": "rotation"
          }
        },
        {
          "sampler": 3,
          "target": {
            "node": 7,
            "path": "translation"
          }
        },
        {
          "sampler": 4,
          "target": {
            "node": 7,
            "path": "rotation"
          }
        },
        {
          "sampler": 5,
          "target": {
            "node": 6,
            "path": "rotation"
          }
        },
        {
          "sampler": 6,
          "target": {
            "node": 4,
            "path": "rotation"
          }
        },
        {
          "sampler": 7,
          "target": {
            "node": 2,
            "path": "rotation"
          }
        }
      ],
      "name": "Rotation",
      "samplers": [
        {
          "input": 16,
          "interpolation": "LINEAR",
          "output": 17
        },
        {
          "input": 18,
          "interpolation": "LINEAR",
          "output": 19
        },
        {
          "input": 20,
          "interpolation": "LINEAR",
          "output": 21
        },
        {
          "input": 22,
          "interpolation": "LINEAR",
          "output": 23
        },
        {
          "input": 24,
          "interpolation": "LINEAR",
          "output": 25
        },
        {
          "input": 26,
          "interpolation": "LINEAR",
          "output": 27
        },
        {
          "input": 28,
          "interpolation": "LINEAR",
          "output": 29
        },
        {
          "input": 30,
          "interpolation": "LINEAR",
          "output": 31
        }
      ]
    }
  ],
  "asset": {
    "extras": {
      "author": "C. Yamahata (https://sketchfab.com/cyamahat)",
      "license": "CC-BY-4.0 (http://creativecommons.org/licenses/by/4.0/)",
      "source": "https://sketchfab.com/3d-models/hypoid-gear-6592b808326541dd8b887bcf3da44619",
      "title": "Hypoid Gear"
    },
    "generator": "Sketchfab-12.66.0",
    "version": "2.0"
  },
  "bufferViews": [
    {
      "buffer": 0,
      "byteLength": 917304,
      "name": "floatBufferViews",
      "target": 34963
    },
    {
      "buffer": 0,
      "byteLength": 395176,
      "byteOffset": 917304,
      "byteStride": 8,
      "name": "floatBufferViews",
      "target": 34962
    },
    {
      "buffer": 0,
      "byteLength": 1185528,
      "byteOffset": 1312480,
      "byteStride": 12,
      "name": "floatBufferViews",
      "target": 34962
    },
    {
      "buffer": 0,
      "byteLength": 3152,
      "byteOffset": 2498008,
      "name": "floatBufferViews"
    },
    {
      "buffer": 0,
      "byteLength": 2256,
      "byteOffset": 2501160,
      "byteStride": 12,
      "name": "floatBufferViews"
    },
    {
      "buffer": 0,
      "byteLength": 9600,
      "byteOffset": 2503416,
      "byteStride": 16,
      "name": "floatBufferViews"
    }
  ],
  "buffers": [
    {
      "byteLength": 2513016,
      "uri": "scene.bin"
    }
  ],
  "materials": [
    {
      "name": "mtl_2",
      "pbrMetallicRoughness": {
        "baseColorFactor": [
          0.686274528503418,
          0.5607842803001404,
          0.5607842803001404,
          1.0
        ],
        "metallicFactor": 0.0,
        "roughnessFactor": 0.6
      }
    },
    {
      "alphaMode": "BLEND",
      "name": "axis",
      "pbrMetallicRoughness": {
        "baseColorFactor": [
          0.5607842803001404,
          0.686274528503418,
          0.5607842803001404,
          0.15
        ],
        "metallicFactor": 0.0,
        "roughnessFactor": 0.6
      }
    },
    {
      "name": "mtl_1",
      "pbrMetallicRoughness": {
        "baseColorFactor": [
          0.882352888584137,
          0.882352888584137,
          0.882352888584137,
          1.0
        ],
        "metallicFactor": 0.0,
        "roughnessFactor": 0.6
      }
    }
  ],
  "meshes": [
    {
      "name": "axis1.001_0",
      "primitives": [
        {
          "attributes": {
            "NORMAL": 1,
            "POSITION": 0,
            "TEXCOORD_0": 2
          },
          "indices": 3,
          "material": 1,
          "mode": 4
        }
      ]
    },
    {
      "name": "pinion_0",
      "primitives": [
        {
          "attributes": {
            "NORMAL": 5,
            "POSITION": 4,
            "TEXCOORD_0": 6
          },
          "indices": 7,
          "material": 2,
          "mode": 4
        }
      ]
    },
    {
      "name": "axis2.001_0",
      "primitives": [
        {
          "attributes": {
            "NORMAL": 9,
            "POSITION": 8,
            "TEXCOORD_0": 10
          },
          "indices": 11,
          "material": 1,
          "mode": 4
        }
      ]
    },
    {
      "name": "large gear_0",
      "primitives": [
        {
          "attributes": {
            "NORMAL": 13,
            "POSITION": 12,
            "TEXCOORD_0": 14
          },
          "indices": 15,
          "material": 0,
          "mode": 4
        }
      ]
    }
  ],
  "nodes": [
    {
      "children": [
        1
      ],
      "matrix": [
        0.0694357380270958,
        0.0,
        0.0,
        0.0,
        0.0,
        1.541783101790446e-17,
        -0.0694357380270958,
        0.0,
        0.0,
        0.0694357380270958,
        1.541783101790446e-17,
        0.0,
        0.0,
        0.0,
        0.0,
        1.0
      ],
      "name": "Sketchfab_model"
    },
    {
      "children": [
        2,
        4,
        6,
        7,
        9,
        11
      ],
      "name": "Root"
    },
    {
      "children": [
        3
      ],
      "name": "axis1.001",
      "rotation": [
        0.7071067690849304,
        0.0,
        0.0,
        0.7071067690849304
      ],
      "scale": [
        50.0,
        50.0,
        50.0
      ],
      "translation": [
        5.957009792327881,
        -1.377869963645935,
        2.4151599407196045
      ]
    },
    {
      "mesh": 0,
      "name": "axis1.001_0"
    },
    {
      "children": [
        5
      ],
      "name": "pinion",
      "rotation": [
        0.7071067690849304,
        0.0,
        0.0,
        0.7071067690849304
      ],
      "scale": [
        50.0,
        50.0,
        50.0
      ],
      "translation": [
        5.957009792327881,
        -1.377869963645935,
        2.4151599407196045
      ]
    },
    {
      "mesh": 1,
      "name": "pinion_0"
    },
    {
      "name": "axis1",
      "translation": [
        5.957009792327881,
        -1.377869963645935,
        2.4151599407196045
      ]
    },
    {
      "children": [
        8
      ],
      "name": "axis2.001",
      "rotation": [
        0.7071067690849304,
        -0.0,
        -0.0,
        0.7071067690849304
      ],
      "scale": [
        50.0,
        50.0,
        50.0
      ]
    },
    {
      "mesh": 2,
      "name": "axis2.001_0"
    },
    {
      "children": [
        10
      ],
      "name": "large gear",
      "rotation": [
        0.7071067690849304,
        0.0,
        0.0,
        0.7071067690849304
      ],
      "scale": [
        50.0,
        50.0,
        50.0
      ]
    },
    {
      "mesh": 3,
      "name": "large gear_0"
    },
    {
      "name": "axis2",
      "translation": [
        -0.004029999952763319,
        0.0,
        -0.0
      ]
    }
  ],
  "scene": 0,
  "scenes": [
    {
      "name": "Sketchfab_Scene",
      "nodes": [
        0
      ]
    }
  ]
}
