{
  "accessors": [
    {
      "bufferView": 2,
      "componentType": 5126,
      "count": 65532,
      "max": [
        0.7763179540634155,
        1.1090024709701538,
        3.084665536880493
      ],
      "min": [
        0.015139579772949219,
        -0.6637189984321594,
        -3.197253704071045
      ],
      "type": "VEC3"
    },
    {
      "bufferView": 2,
      "byteOffset": 786384,
      "componentType": 5126,
      "count": 65532,
      "max": [
        0.9988278746604919,
        0.9999997615814209,
        0.9999979138374329
      ],
      "min": [
        -1.0,
        -0.9999377727508545,
        -0.9999963641166687
      ],
      "type": "VEC3"
    },
    {
      "bufferView": 1,
      "componentType": 5126,
      "count": 65532,
      "max": [
        0.9999698400497437,
        0.9965053200721741
      ],
      "min": [
        0.0019378227880224586,
        6.704156930936733e-06
      ],
      "type": "VEC2"
    },
    {
      "bufferView": 1,
      "byteOffset": 524256,
      "componentType": 5126,
      "count": 65532,
      "max": [
        0.9999698400497437,
        0.9965053200721741
      ],
      "min": [
        0.0019378227880224586,
        6.704156930936733e-06
      ],
      "type": "VEC2"
    },
    {
      "bufferView": 1,
      "byteOffset": 1048512,
      "componentType": 5126,
      "count": 65532,
      "max": [
        0.9999698400497437,
        0.9965053200721741
      ],
      "min": [
        0.0019378227880224586,
        6.704156930936733e-06
      ],
      "type": "VEC2"
    },
    {
      "bufferView": 1,
      "byteOffset": 1572768,
      "componentType": 5126,
      "count": 65532,
      "max": [
        0.9999698400497437,
        0.9965053200721741
      ],
      "min": [
        0.0019378227880224586,
        6.704156930936733e-06
      ],
      "type": "VEC2"
    },
    {
      "bufferView": 1,
      "byteOffset": 2097024,
      "componentType": 5126,
      "count": 65532,
      "max": [
        0.9999698400497437,
        0.9965053200721741
      ],
      "min": [
        0.0019378227880224586,
        6.704156930936733e-06
      ],
      "type": "VEC2"
    },
    {
      "bufferView": 0,
      "componentType": 5125,
      "count": 340461,
      "type": "SCALAR"
    },
    {
      "bufferView": 2,
      "byteOffset": 1572768,
      "componentType": 5126,
      "count": 54629,
      "max": [
        0.7681282758712769,
        1.1096367835998535,
        3.084399700164795
      ],
      "min": [
        0.018449783325195313,
        -0.6637189984321594,
        -3.197253704071045
      ],
      "type": "VEC3"
    },
    {
      "bufferView": 2,
      "byteOffset": 2228316,
      "componentType": 5126,
      "count": 54629,
      "max": [
        0.9988278746604919,
        0.9999998807907104,
        0.9999977350234985
      ],
      "min": [
        -1.0,
        -0.999968409538269,
        -0.9999911189079285
      ],
      "type": "VEC3"
    },
    {
      "bufferView": 1,
      "byteOffset": 2621280,
      "componentType": 5126,
      "count": 54629,
      "max": [
        0.9999994039535522,
        0.9964715242385864
      ],
      "min": [
        6.104829935793532e-06,
        6.357029178616358e-06
      ],
      "type": "VEC2"
    },
    {
      "bufferView": 1,
      "byteOffset": 3058312,
      "componentType": 5126,
      "count": 54629,
      "max": [
        0.9999994039535522,
        0.9964715242385864
      ],
      "min": [
        6.104829935793532e-06,
        6.357029178616358e-06
      ],
      "type": "VEC2"
    },
    {
      "bufferView": 1,
      "byteOffset": 3495344,
      "componentType": 5126,
      "count": 54629,
      "max": [
        0.9999994039535522,
        0.9964715242385864
      ],
      "min": [
        6.104829935793532e-06,
        6.357029178616358e-06
      ],
      "type": "VEC2"
    },
    {
      "bufferView": 1,
      "byteOffset": 3932376,
      "componentType": 5126,
      "count": 54629,
      "max": [
        0.9999994039535522,
        0.9964715242385864
      ],
      "min": [
        6.104829935793532e-06,
        6.357029178616358e-06
      ],
      "type": "VEC2"
    },
    {
      "bufferView": 1,
      "byteOffset": 4369408,
      "componentType": 5126,
      "count": 54629,
      "max": [
        0.9999994039535522,
        0.9964715242385864
      ],
      "min": [
        6.104829935793532e-06,
        6.357029178616358e-06
      ],
      "type": "VEC2"
    },
    {
      "bufferView": 0,
      "byteOffset": 1361844,
      "componentType": 5125,
      "count": 259401,
      "type": "SCALAR"
    }
  ],
  "asset": {
    "extras": {
      "author": "jmill (https://sketchfab.com/jmill)",
      "license": "CC-BY-NC-SA-4.0 (http://creativecommons.org/licenses/by-nc-sa/4.0/)",
      "source": "https://sketchfab.com/3d-models/mit-mechanical-engineering-hallway-display-31cbdb1d6cf543daa9fbc3bfc2301366",
      "title": "M.I.T. Mechanical Engineering hallway display"
    },
    "generator": "Sketchfab-13.42.0",
    "version": "2.0"
  },
  "bufferViews": [
    {
      "buffer": 0,
      "byteLength": 2399448,
      "name": "floatBufferViews",
      "target": 34963
    },
    {
      "buffer": 0,
      "byteLength": 4806440,
      "byteOffset": 2399448,
      "byteStride": 8,
      "name": "floatBufferViews",
      "target": 34962
    },
    {
      "buffer": 0,
      "byteLength": 2883864,
      "byteOffset": 7205888,
      "byteStride": 12,
      "name": "floatBufferViews",
      "target": 34962
    }
  ],
  "buffers": [
    {
      "byteLength": 10089752,
      "uri": "scene.bin"
    }
  ],
  "extensionsUsed": [
    "KHR_materials_unlit"
  ],
  "images": [
    {
      "uri": "textures/material_0_baseColor.jpeg"
    }
  ],
  "materials": [
    {
      "extensions": {
        "KHR_materials_unlit": {}
      },
      "name": "material_0",
      "pbrMetallicRoughness": {
        "baseColorTexture": {
          "index": 0
        },
        "metallicFactor": 0.0
      }
    }
  ],
  "meshes": [
    {
      "name": "Object_0",
      "primitives": [
        {
          "attributes": {
            "NORMAL": 1,
            "POSITION": 0,
            "TEXCOORD_0": 2,
            "TEXCOORD_1": 3,
            "TEXCOORD_2": 4,
            "TEXCOORD_3": 5,
            "TEXCOORD_4": 6
          },
          "indices": 7,
          "material": 0,
          "mode": 4
        }
      ]
    },
    {
      "name": "Object_1",
      "primitives": [
        {
          "attributes": {
            "NORMAL": 9,
            "POSITION": 8,
            "TEXCOORD_0": 10,
            "TEXCOORD_1": 11,
            "TEXCOORD_2": 12,
            "TEXCOORD_3": 13,
            "TEXCOORD_4": 14
          },
          "indices": 15,
          "material": 0,
          "mode": 4
        }
      ]
    }
  ],
  "nodes": [
    {
      "children": [
        1
      ],
      "matrix": [
        1.0,
        0.0,
        0.0,
        0.0,
        0.0,
        2.220446049250313e-16,
        -1.0,
        0.0,
        0.0,
        1.0,
        2.220446049250313e-16,
        0.0,
        0.0,
        0.0,
        0.0,
        1.0
      ],
      "name": "Sketchfab_model"
    },
    {
      "children": [
        2
      ],
      "name": "root"
    },
    {
      "children": [
        3
      ],
      "matrix": [
        1.0,
        0.0,
        0.0,
        0.0,
        0.0,
        2.220446049250313e-16,
        1.0,
        0.0,
        0.0,
        -1.0,
        2.220446049250313e-16,
        0.0,
        0.0,
        0.0,
        0.0,
        1.0
      ],
      "name": "GLTF_SceneRootNode"
    },
    {
      "children": [
        4,
        5
      ],
      "name": "_0"
    },
    {
      "mesh": 0,
      "name": "Object_4"
    },
    {
      "mesh": 1,
      "name": "Object_5"
    }
  ],
  "samplers": [
    {
      "magFilter": 9729,
      "minFilter": 9987,
      "wrapS": 10497,
      "wrapT": 10497
    }
  ],
  "scene": 0,
  "scenes": [
    {
      "name": "Sketchfab_Scene",
      "nodes": [
        0
      ]
    }
  ],
  "textures": [
    {
      "sampler": 0,
      "source": 0
    }
  ]
}
