{
  "accessors": [
    {
      "bufferView": 2,
      "componentType": 5126,
      "count": 10484,
      "max": [
        0.99359530210495,
        0.2912881076335907,
        0.9935952425003052
      ],
      "min": [
        -0.9935951828956604,
        0.0,
        -0.9935952425003052
      ],
      "type": "VEC3"
    },
    {
      "bufferView": 2,
      "byteOffset": 125808,
      "componentType": 5126,
      "count": 10484,
      "max": [
        0.9999244809150696,
        1.0,
        0.9999244213104248
      ],
      "min": [
        -0.9999244213104248,
        -0.8892217874526978,
        -0.9999244213104248
      ],
      "type": "VEC3"
    },
    {
      "bufferView": 1,
      "componentType": 5126,
      "count": 10484,
      "max": [
        0.9995907545089722,
        1.0
      ],
      "min": [
        0.0,
        0.0
      ],
      "type": "VEC2"
    },
    {
      "bufferView": 0,
      "componentType": 5125,
      "count": 16122,
      "type": "SCALAR"
    },
    {
      "bufferView": 2,
      "byteOffset": 251616,
      "componentType": 5126,
      "count": 2304,
      "max": [
        0.9918313026428223,
        0.3956853151321411,
        0.991831362247467
      ],
      "min": [
        -0.9918313026428223,
        -0.3956853151321411,
        -0.9918313026428223
      ],
      "type": "VEC3"
    },
    {
      "bufferView": 2,
      "byteOffset": 279264,
      "componentType": 5126,
      "count": 2304,
      "max": [
        0.9999998807907104,
        1.0,
        0.9999998807907104
      ],
      "min": [
        -0.9999998211860657,
        -1.0,
        -0.9999998211860657
      ],
      "type": "VEC3"
    },
    {
      "bufferView": 1,
      "byteOffset": 83872,
      "componentType": 5126,
      "count": 2304,
      "max": [
        0.7957329750061035,
        0.7945256233215332
      ],
      "min": [
        0.19473691284656525,
        0.19352960586547852
      ],
      "type": "VEC2"
    },
    {
      "bufferView": 0,
      "byteOffset": 64488,
      "componentType": 5125,
      "count": 3828,
      "type": "SCALAR"
    }
  ],
  "asset": {
    "extras": {
      "author": "ItzJustSamu (https://sketchfab.com/itzjustsamuel)",
      "license": "CC-BY-4.0 (http://creativecommons.org/licenses/by/4.0/)",
      "source": "https://sketchfab.com/3d-models/dont-push-button-8d369bf078da4baea2abe89414accb55",
      "title": "Don't Push Button"
    },
    "generator": "Sketchfab-13.51.0",
    "version": "2.0"
  },
  "bufferViews": [
    {
      "buffer": 0,
      "byteLength": 79800,
      "name": "floatBufferViews",
      "target": 34963
    },
    {
      "buffer": 0,
      "byteLength": 102304,
      "byteOffset": 79800,
      "byteStride": 8,
      "name": "floatBufferViews",
      "target": 34962
    },
    {
      "buffer": 0,
      "byteLength": 306912,
      "byteOffset": 182104,
      "byteStride": 12,
      "name": "floatBufferViews",
      "target": 34962
    }
  ],
  "buffers": [
    {
      "byteLength": 489016,
      "uri": "scene.bin"
    }
  ],
  "images": [
    {
      "uri": "textures/Material_baseColor.jpeg"
    }
  ],
  "materials": [
    {
      "doubleSided": true,
      "name": "Metal",
      "pbrMetallicRoughness": {
        "baseColorFactor": [
          0.233016,
          0.233016,
          0.233016,
          1.0
        ],
        "roughnessFactor": 0.4
      }
    },
    {
      "doubleSided": true,
      "name": "Material",
      "pbrMetallicRoughness": {
        "baseColorTexture": {
          "index": 0
        },
        "metallicFactor": 0.0,
        "roughnessFactor": 0.5
      }
    }
  ],
  "meshes": [
    {
      "name": "Object_0",
      "primitives": [
        {
          "attributes": {
            "NORMAL": 1,
            "POSITION": 0,
            "TEXCOORD_0": 2
          },
          "indices": 3,
          "material": 0,
          "mode": 4
        }
      ]
    },
    {
      "name": "Object_1",
      "primitives": [
        {
          "attributes": {
            "NORMAL": 5,
            "POSITION": 4,
            "TEXCOORD_0": 6
          },
          "indices": 7,
          "material": 1,
          "mode": 4
        }
      ]
    }
  ],
  "nodes": [
    {
      "children": [
        1
      ],
      "matrix": [
        1.0,
        0.0,
        0.0,
        0.0,
        0.0,
        2.220446049250313e-16,
        -1.0,
        0.0,
        0.0,
        1.0,
        2.220446049250313e-16,
        0.0,
        0.0,
        0.0,
        0.0,
        1.0
      ],
      "name": "Sketchfab_model"
    },
    {
      "children": [
        2
      ],
      "name": "root"
    },
    {
      "children": [
        3,
        5
      ],
      "matrix": [
        1.0,
        0.0,
        0.0,
        0.0,
        0.0,
        2.220446049250313e-16,
        1.0,
        0.0,
        0.0,
        -1.0,
        2.220446049250313e-16,
        0.0,
        0.0,
        0.0,
        0.0,
        1.0
      ],
      "name": "GLTF_SceneRootNode"
    },
    {
      "children": [
        4
      ],
      "name": "Circle_0"
    },
    {
      "mesh": 0,
      "name": "Object_4"
    },
    {
      "children": [
        6
      ],
      "matrix": [
        0.725046236730849,
        0.0,
        -0.3380946223706021,
        0.0,
        0.0,
        0.14000000059604645,
        0.0,
        0.0,
        0.3380946223706021,
        0.0,
        0.725046236730849,
        0.0,
        0.0,
        0.27757149934768677,
        0.0,
        1.0
      ],
      "name": "Cylinder_1"
    },
    {
      "mesh": 1,
      "name": "Object_6"
    }
  ],
  "samplers": [
    {
      "magFilter": 9729,
      "minFilter": 9987,
      "wrapS": 10497,
      "wrapT": 10497
    }
  ],
  "scene": 0,
  "scenes": [
    {
      "name": "Sketchfab_Scene",
      "nodes": [
        0
      ]
    }
  ],
  "textures": [
    {
      "sampler": 0,
      "source": 0
    }
  ]
}
