{
  "accessors": [
    {
      "bufferView": 2,
      "componentType": 5126,
      "count": 1390,
      "max": [
        0.005181611981242895,
        0.09605848789215088,
        0.17639902234077454
      ],
      "min": [
        -0.27722179889678955,
        -0.07877694070339203,
        -0.17639902234077454
      ],
      "type": "VEC3"
    },
    {
      "bufferView": 2,
      "byteOffset": 16680,
      "componentType": 5126,
      "count": 1390,
      "max": [
        0.997564435005188,
        0.9993909597396851,
        1.0
      ],
      "min": [
        -0.9987321496009827,
        -0.9995912909507751,
        -1.0
      ],
      "type": "VEC3"
    },
    {
      "bufferView": 1,
      "componentType": 5126,
      "count": 1390,
      "max": [
        0.9640350341796875,
        0.9894753694534302
      ],
      "min": [
        0.13193343579769135,
        0.04402436316013336
      ],
      "type": "VEC2"
    },
    {
      "bufferView": 0,
      "componentType": 5125,
      "count": 1806,
      "type": "SCALAR"
    },
    {
      "bufferView": 2,
      "byteOffset": 33360,
      "componentType": 5126,
      "count": 1390,
      "max": [
        0.005181611981242895,
        0.09605848789215088,
        0.17639902234077454
      ],
      "min": [
        -0.27722179889678955,
        -0.07877694070339203,
        -0.17639902234077454
      ],
      "type": "VEC3"
    },
    {
      "bufferView": 2,
      "byteOffset": 50040,
      "componentType": 5126,
      "count": 1390,
      "max": [
        0.997564435005188,
        0.9993909597396851,
        1.0
      ],
      "min": [
        -0.9987321496009827,
        -0.9995912909507751,
        -1.0
      ],
      "type": "VEC3"
    },
    {
      "bufferView": 1,
      "byteOffset": 11120,
      "componentType": 5126,
      "count": 1390,
      "max": [
        0.9640350341796875,
        0.9894753694534302
      ],
      "min": [
        0.13193343579769135,
        0.04402436316013336
      ],
      "type": "VEC2"
    },
    {
      "bufferView": 0,
      "byteOffset": 7224,
      "componentType": 5125,
      "count": 1956,
      "type": "SCALAR"
    },
    {
      "bufferView": 2,
      "byteOffset": 66720,
      "componentType": 5126,
      "count": 1390,
      "max": [
        0.005181611981242895,
        0.09605848789215088,
        0.17639902234077454
      ],
      "min": [
        -0.27722179889678955,
        -0.07877694070339203,
        -0.17639902234077454
      ],
      "type": "VEC3"
    },
    {
      "bufferView": 2,
      "byteOffset": 83400,
      "componentType": 5126,
      "count": 1390,
      "max": [
        0.997564435005188,
        0.9993909597396851,
        1.0
      ],
      "min": [
        -0.9987321496009827,
        -0.9995912909507751,
        -1.0
      ],
      "type": "VEC3"
    },
    {
      "bufferView": 1,
      "byteOffset": 22240,
      "componentType": 5126,
      "count": 1390,
      "max": [
        0.9640350341796875,
        0.9894753694534302
      ],
      "min": [
        0.13193343579769135,
        0.04402436316013336
      ],
      "type": "VEC2"
    },
    {
      "bufferView": 0,
      "byteOffset": 15048,
      "componentType": 5125,
      "count": 102,
      "type": "SCALAR"
    },
    {
      "bufferView": 2,
      "byteOffset": 100080,
      "componentType": 5126,
      "count": 1618,
      "max": [
        0.14612886309623718,
        0.1854042112827301,
        0.1763990968465805
      ],
      "min": [
        -0.14398843050003052,
        -0.029166217893362045,
        -0.1763990968465805
      ],
      "type": "VEC3"
    },
    {
      "bufferView": 2,
      "byteOffset": 119496,
      "componentType": 5126,
      "count": 1618,
      "max": [
        1.0,
        1.0,
        1.0
      ],
      "min": [
        -1.0,
        -1.0,
        -1.0
      ],
      "type": "VEC3"
    },
    {
      "bufferView": 1,
      "byteOffset": 33360,
      "componentType": 5126,
      "count": 1618,
      "max": [
        0.9857078790664673,
        0.9842706918716431
      ],
      "min": [
        0.008842075243592262,
        0.005924362689256668
      ],
      "type": "VEC2"
    },
    {
      "bufferView": 0,
      "byteOffset": 15456,
      "componentType": 5125,
      "count": 102,
      "type": "SCALAR"
    },
    {
      "bufferView": 2,
      "byteOffset": 138912,
      "componentType": 5126,
      "count": 1618,
      "max": [
        0.14612886309623718,
        0.1854042112827301,
        0.1763990968465805
      ],
      "min": [
        -0.14398843050003052,
        -0.029166217893362045,
        -0.1763990968465805
      ],
      "type": "VEC3"
    },
    {
      "bufferView": 2,
      "byteOffset": 158328,
      "componentType": 5126,
      "count": 1618,
      "max": [
        1.0,
        1.0,
        1.0
      ],
      "min": [
        -1.0,
        -1.0,
        -1.0
      ],
      "type": "VEC3"
    },
    {
      "bufferView": 1,
      "byteOffset": 46304,
      "componentType": 5126,
      "count": 1618,
      "max": [
        0.9857078790664673,
        0.9842706918716431
      ],
      "min": [
        0.008842075243592262,
        0.005924362689256668
      ],
      "type": "VEC2"
    },
    {
      "bufferView": 0,
      "byteOffset": 15864,
      "componentType": 5125,
      "count": 3162,
      "type": "SCALAR"
    },
    {
      "bufferView": 2,
      "byteOffset": 177744,
      "componentType": 5126,
      "count": 1618,
      "max": [
        0.14612886309623718,
        0.1854042112827301,
        0.1763990968465805
      ],
      "min": [
        -0.14398843050003052,
        -0.029166217893362045,
        -0.1763990968465805
      ],
      "type": "VEC3"
    },
    {
      "bufferView": 2,
      "byteOffset": 197160,
      "componentType": 5126,
      "count": 1618,
      "max": [
        1.0,
        1.0,
        1.0
      ],
      "min": [
        -1.0,
        -1.0,
        -1.0
      ],
      "type": "VEC3"
    },
    {
      "bufferView": 1,
      "byteOffset": 59248,
      "componentType": 5126,
      "count": 1618,
      "max": [
        0.9857078790664673,
        0.9842706918716431
      ],
      "min": [
        0.008842075243592262,
        0.005924362689256668
      ],
      "type": "VEC2"
    },
    {
      "bufferView": 0,
      "byteOffset": 28512,
      "componentType": 5125,
      "count": 2214,
      "type": "SCALAR"
    },
    {
      "bufferView": 2,
      "byteOffset": 216576,
      "componentType": 5126,
      "count": 484,
      "max": [
        0.08341486006975174,
        0.25384119153022766,
        0.08020862191915512
      ],
      "min": [
        -0.08137472718954086,
        0.17828616499900818,
        -0.08458096534013748
      ],
      "type": "VEC3"
    },
    {
      "bufferView": 2,
      "byteOffset": 222384,
      "componentType": 5126,
      "count": 484,
      "max": [
        0.9993345141410828,
        1.0,
        0.9993345141410828
      ],
      "min": [
        -0.9993345141410828,
        -0.26776084303855896,
        -0.9993346333503723
      ],
      "type": "VEC3"
    },
    {
      "bufferView": 1,
      "byteOffset": 72192,
      "componentType": 5126,
      "count": 484,
      "max": [
        0.5988675951957703,
        0.8757516741752625
      ],
      "min": [
        0.31005582213401794,
        0.7404109239578247
      ],
      "type": "VEC2"
    },
    {
      "bufferView": 0,
      "byteOffset": 37368,
      "componentType": 5125,
      "count": 2154,
      "type": "SCALAR"
    }
  ],
  "asset": {
    "extras": {
      "author": "forest (https://sketchfab.com/plutovr)",
      "license": "CC-BY-4.0 (http://creativecommons.org/licenses/by/4.0/)",
      "source": "https://sketchfab.com/3d-models/red-button-0bcbe949e6714aac9a196998200f7007",
      "title": "Red Button"
    },
    "generator": "Sketchfab-12.67.0",
    "version": "2.0"
  },
  "bufferViews": [
    {
      "buffer": 0,
      "byteLength": 45984,
      "name": "floatBufferViews",
      "target": 34963
    },
    {
      "buffer": 0,
      "byteLength": 76064,
      "byteOffset": 45984,
      "byteStride": 8,
      "name": "floatBufferViews",
      "target": 34962
    },
    {
      "buffer": 0,
      "byteLength": 228192,
      "byteOffset": 122048,
      "byteStride": 12,
      "name": "floatBufferViews",
      "target": 34962
    }
  ],
  "buffers": [
    {
      "byteLength": 350240,
      "uri": "scene.bin"
    }
  ],
  "images": [
    {
      "uri": "textures/mat_SekiMetalRed01_baseColor.jpeg"
    }
  ],
  "materials": [
    {
      "name": "mat_SekiPlastic01",
      "pbrMetallicRoughness": {
        "baseColorFactor": [
          0.0588235,
          0.0588235,
          0.0588235,
          1.0
        ],
        "metallicFactor": 0.2,
        "roughnessFactor": 0.69
      }
    },
    {
      "name": "mat_SekiMetal01",
      "pbrMetallicRoughness": {
        "metallicFactor": 0.63,
        "roughnessFactor": 0.67
      }
    },
    {
      "name": "mat_SekiMetalRed01",
      "pbrMetallicRoughness": {
        "baseColorTexture": {
          "index": 0
        },
        "metallicFactor": 0.23,
        "roughnessFactor": 0.73
      }
    },
    {
      "name": "mat_SekiButtonRed01",
      "pbrMetallicRoughness": {
        "baseColorFactor": [
          1.0,
          0.0,
          0.0,
          1.0
        ],
        "metallicFactor": 0.25,
        "roughnessFactor": 0.45
      }
    }
  ],
  "meshes": [
    {
      "name": "Object_0",
      "primitives": [
        {
          "attributes": {
            "NORMAL": 1,
            "POSITION": 0,
            "TEXCOORD_0": 2
          },
          "indices": 3,
          "material": 0,
          "mode": 4
        }
      ]
    },
    {
      "name": "Object_1",
      "primitives": [
        {
          "attributes": {
            "NORMAL": 5,
            "POSITION": 4,
            "TEXCOORD_0": 6
          },
          "indices": 7,
          "material": 1,
          "mode": 4
        }
      ]
    },
    {
      "name": "Object_2",
      "primitives": [
        {
          "attributes": {
            "NORMAL": 9,
            "POSITION": 8,
            "TEXCOORD_0": 10
          },
          "indices": 11,
          "material": 2,
          "mode": 4
        }
      ]
    },
    {
      "name": "Object_3",
      "primitives": [
        {
          "attributes": {
            "NORMAL": 13,
            "POSITION": 12,
            "TEXCOORD_0": 14
          },
          "indices": 15,
          "material": 2,
          "mode": 4
        }
      ]
    },
    {
      "name": "Object_4",
      "primitives": [
        {
          "attributes": {
            "NORMAL": 17,
            "POSITION": 16,
            "TEXCOORD_0": 18
          },
          "indices": 19,
          "material": 0,
          "mode": 4
        }
      ]
    },
    {
      "name": "Object_5",
      "primitives": [
        {
          "attributes": {
            "NORMAL": 21,
            "POSITION": 20,
            "TEXCOORD_0": 22
          },
          "indices": 23,
          "material": 1,
          "mode": 4
        }
      ]
    },
    {
      "name": "Object_6",
      "primitives": [
        {
          "attributes": {
            "NORMAL": 25,
            "POSITION": 24,
            "TEXCOORD_0": 26
          },
          "indices": 27,
          "material": 3,
          "mode": 4
        }
      ]
    }
  ],
  "nodes": [
    {
      "children": [
        1
      ],
      "matrix": [
        1.0,
        0.0,
        0.0,
        0.0,
        0.0,
        2.220446049250313e-16,
        -1.0,
        0.0,
        0.0,
        1.0,
        2.220446049250313e-16,
        0.0,
        0.0,
        0.0,
        0.0,
        1.0
      ],
      "name": "Sketchfab_model"
    },
    {
      "children": [
        2
      ],
      "name": "root"
    },
    {
      "children": [
        3
      ],
      "matrix": [
        1.0,
        0.0,
        0.0,
        0.0,
        0.0,
        2.220446049250313e-16,
        1.0,
        0.0,
        0.0,
        -1.0,
        2.220446049250313e-16,
        0.0,
        0.0,
        0.0,
        0.0,
        1.0
      ],
      "name": "Correction matrix"
    },
    {
      "children": [
        4
      ],
      "name": "GLTF_SceneRootNode"
    },
    {
      "children": [
        5
      ],
      "matrix": [
        -1.0,
        0.0,
        -8.742277657347586e-08,
        0.0,
        0.0,
        1.0,
        0.0,
        0.0,
        8.742277657347586e-08,
        0.0,
        -1.0,
        0.0,
        0.0,
        0.0,
        0.0,
        1.0
      ],
      "name": "UnityGlTF_correctionMatrix_0"
    },
    {
      "children": [
        6,
        10,
        14
      ],
      "matrix": [
        -4.768372150465439e-07,
        -7.105428204633949e-15,
        1.0,
        0.0,
        -7.460229130415094e-15,
        1.0,
        7.105423969469213e-15,
        0.0,
        -1.0,
        -7.460225742283305e-15,
        -4.768372150465439e-07,
        0.0,
        -191.96400451660156,
        -1.5270010232925415,
        3.6100029945373535,
        1.0
      ],
      "name": "node_SekiButtonBox01_-11074_4"
    },
    {
      "children": [
        7,
        8,
        9
      ],
      "matrix": [
        1.0,
        0.0,
        0.0,
        0.0,
        0.0,
        1.0,
        0.0,
        0.0,
        0.0,
        0.0,
        1.0,
        0.0,
        -0.15310099720954895,
        0.20307190716266632,
        0.0010649219620972872,
        1.0
      ],
      "name": "node__1_-11016_2"
    },
    {
      "mesh": 0,
      "name": "Object_7"
    },
    {
      "mesh": 1,
      "name": "Object_8"
    },
    {
      "mesh": 2,
      "name": "Object_9"
    },
    {
      "children": [
        11,
        12,
        13
      ],
      "matrix": [
        1.0,
        0.0,
        0.0,
        0.0,
        0.0,
        1.0,
        0.0,
        0.0,
        0.0,
        0.0,
        1.0,
        0.0,
        -0.010253439657390118,
        0.029162859544157982,
        0.00106492405757308,
        1.0
      ],
      "name": "node_sekibuttonbox01_-11056_3"
    },
    {
      "mesh": 3,
      "name": "Object_11"
    },
    {
      "mesh": 4,
      "name": "Object_12"
    },
    {
      "mesh": 5,
      "name": "Object_13"
    },
    {
      "children": [
        15
      ],
      "matrix": [
        1.0,
        0.0,
        0.0,
        0.0,
        0.0,
        1.0,
        0.0,
        0.0,
        0.0,
        0.0,
        1.0,
        0.0,
        -0.010253439657390118,
        0.029162859544157982,
        0.00106492405757308,
        1.0
      ],
      "name": "node_sekibuttonbox01_button_-10976_1"
    },
    {
      "mesh": 6,
      "name": "Object_15"
    }
  ],
  "samplers": [
    {
      "magFilter": 9729,
      "minFilter": 9987,
      "wrapS": 10497,
      "wrapT": 10497
    }
  ],
  "scene": 0,
  "scenes": [
    {
      "name": "Sketchfab_Scene",
      "nodes": [
        0
      ]
    }
  ],
  "textures": [
    {
      "sampler": 0,
      "source": 0
    }
  ]
}
